<?xml version="1.0" standalone="no"?>
<!DOCTYPE svg PUBLIC "-//W3C//DTD SVG 20010904//EN"
 "http://www.w3.org/TR/2001/REC-SVG-20010904/DTD/svg10.dtd">
<svg version="1.0" xmlns="http://www.w3.org/2000/svg"
 width="512.000000pt" height="512.000000pt" viewBox="0 0 512.000000 512.000000"
 preserveAspectRatio="xMidYMid meet">

<g transform="translate(0.000000,512.000000) scale(0.100000,-0.100000)"
fill="#000000" stroke="none">
<path d="M2295 5104 c-64 -24 -123 -89 -143 -158 l-17 -58 -90 -33 c-50 -17
-123 -48 -163 -69 l-72 -36 -41 27 c-53 35 -153 43 -214 18 -49 -21 -325 -290
-363 -355 -23 -37 -27 -57 -27 -115 1 -67 9 -92 47 -147 10 -13 3 -34 -34
-115 -25 -54 -55 -128 -67 -164 l-22 -66 -57 -16 c-62 -17 -118 -62 -149 -120
-26 -46 -32 -450 -9 -531 21 -71 90 -136 166 -157 l52 -14 33 -90 c17 -49 48
-123 69 -163 l36 -72 -27 -41 c-32 -49 -43 -144 -23 -206 16 -46 290 -330 360
-371 74 -44 186 -36 262 20 13 10 33 4 115 -34 54 -25 128 -55 164 -67 l66
-22 16 -57 c17 -62 62 -118 120 -149 47 -26 464 -32 537 -8 70 23 125 82 148
157 l17 60 90 33 c50 17 123 48 163 69 l72 36 41 -27 c49 -32 144 -43 206 -23
56 19 344 305 380 378 38 78 28 163 -29 244 -10 13 -3 34 34 115 25 54 55 128
67 164 22 66 22 67 69 79 64 16 118 55 150 109 27 46 27 47 30 274 3 190 1
236 -13 277 -23 70 -82 125 -157 148 l-60 17 -33 90 c-17 50 -48 123 -69 163
l-36 72 27 41 c32 49 43 144 23 206 -18 53 -304 343 -374 378 -80 40 -170 30
-248 -27 -13 -10 -33 -4 -115 34 -54 25 -128 55 -164 67 -66 22 -67 22 -79 69
-16 67 -52 116 -107 149 l-48 28 -235 2 c-188 2 -243 -1 -275 -13z m496 -163
c20 -20 29 -40 29 -61 0 -35 19 -77 47 -102 10 -9 59 -30 108 -47 50 -16 141
-52 203 -81 128 -59 147 -60 222 -10 78 52 84 49 252 -118 135 -134 148 -150
148 -182 0 -22 -11 -51 -30 -79 -43 -64 -40 -100 19 -224 28 -56 62 -138 76
-182 15 -44 33 -90 41 -103 22 -33 74 -62 112 -62 24 0 42 -9 63 -29 l29 -29
0 -209 c0 -195 -1 -211 -20 -231 -11 -11 -37 -24 -57 -27 -97 -16 -125 -46
-165 -170 -14 -44 -49 -131 -78 -193 -59 -128 -60 -147 -10 -222 52 -78 49
-84 -118 -252 -134 -135 -150 -148 -182 -148 -22 0 -51 11 -79 30 -64 44 -102
40 -225 -19 -55 -27 -137 -61 -181 -76 -44 -15 -90 -33 -103 -41 -33 -22 -62
-74 -62 -112 0 -24 -9 -42 -29 -63 l-29 -29 -205 0 c-191 0 -206 1 -230 20
-16 13 -29 35 -33 58 -16 100 -39 122 -162 162 -53 18 -140 53 -192 78 -119
57 -156 60 -226 15 -28 -18 -60 -33 -71 -33 -31 0 -87 46 -215 177 -135 138
-141 153 -88 232 44 64 40 102 -20 225 -27 56 -61 140 -76 186 -36 111 -69
148 -144 159 -40 6 -60 16 -77 35 -22 26 -23 33 -23 232 l0 206 29 29 c20 20
40 29 61 29 41 0 84 23 108 57 10 16 31 65 45 111 15 46 48 127 74 180 58 121
61 157 16 228 -18 28 -33 60 -33 71 0 31 46 87 177 216 138 134 153 140 232
87 64 -44 102 -40 225 19 55 27 137 61 181 75 44 15 90 34 103 42 33 22 62 74
62 112 0 24 9 42 29 63 l29 29 207 0 207 0 29 -29z"/>
<path d="M2369 4454 c-424 -76 -770 -425 -844 -851 -112 -643 383 -1233 1035
-1233 401 0 762 224 943 585 40 82 83 212 93 283 6 46 4 53 -19 76 -15 14 -37
26 -50 26 -45 0 -65 -29 -91 -130 -30 -119 -70 -208 -137 -306 -132 -191 -363
-337 -589 -373 -143 -23 -331 -6 -458 41 l-56 21 54 50 c72 66 193 123 290
138 192 27 236 39 326 83 200 100 333 298 351 524 7 92 -10 206 -38 251 -25
41 -80 65 -128 56 -29 -5 -68 -39 -206 -176 -129 -127 -177 -169 -196 -169
-34 0 -159 126 -159 160 0 18 44 68 169 195 186 187 197 206 167 278 -19 48
-63 73 -150 88 -175 29 -381 -28 -518 -146 -127 -108 -227 -313 -228 -465 0
-101 -80 -287 -153 -358 l-44 -43 -16 43 c-76 201 -74 450 4 648 89 221 271
408 491 502 157 66 360 85 533 49 332 -69 596 -319 686 -648 12 -43 28 -86 37
-95 21 -24 77 -23 102 2 27 27 26 71 -6 172 -119 376 -437 656 -823 723 -102
18 -270 18 -372 -1z m278 -532 c8 -5 -35 -55 -133 -152 -80 -80 -152 -159
-160 -177 -19 -43 -18 -127 2 -166 22 -44 161 -184 206 -208 45 -23 124 -25
173 -4 20 8 99 77 177 154 78 77 146 137 150 135 13 -8 9 -115 -7 -183 -22
-92 -68 -171 -141 -241 -76 -73 -161 -115 -264 -130 -284 -42 -376 -80 -528
-217 l-69 -62 -67 55 c-36 30 -90 84 -120 121 l-55 66 60 66 c107 117 176 256
197 396 6 39 16 103 23 143 29 189 180 351 367 396 63 16 170 20 189 8z"/>
<path d="M299 2067 c-24 -13 -57 -43 -74 -66 l-30 -43 -3 -854 c-2 -835 -2
-855 18 -893 26 -51 82 -97 136 -110 51 -13 373 -14 427 -2 80 19 140 82 160
169 l12 49 345 -129 c190 -71 383 -141 430 -156 l85 -27 635 -3 c454 -2 656 0
710 8 151 24 263 78 705 335 258 150 597 343 810 460 88 48 171 97 183 109 46
41 75 114 80 202 4 72 1 89 -20 136 -75 162 -234 223 -408 155 -36 -14 -321
-138 -635 -277 -313 -138 -575 -254 -581 -256 -7 -3 -13 22 -17 74 -14 186
-125 338 -294 402 -36 13 -180 34 -490 70 -543 62 -531 59 -794 210 -127 73
-252 125 -379 160 -89 24 -257 50 -321 50 l-46 0 -6 49 c-7 57 -34 116 -69
148 -51 47 -83 53 -311 53 -205 0 -216 -1 -258 -23z m471 -147 c19 -19 20 -33
20 -259 0 -217 2 -241 18 -262 27 -33 78 -30 109 5 22 25 23 35 23 157 l0 129
43 0 c68 0 225 -27 322 -55 105 -30 227 -87 375 -172 124 -72 207 -108 293
-128 34 -8 256 -37 494 -64 474 -55 488 -58 562 -132 59 -59 83 -119 89 -221
l5 -88 -457 0 -458 0 -30 -30 c-24 -25 -29 -36 -23 -58 16 -66 -15 -62 549
-62 l511 0 682 300 c573 253 691 301 732 302 97 2 155 -62 148 -164 -2 -43 -9
-64 -26 -82 -13 -14 -137 -88 -277 -165 -139 -78 -410 -232 -601 -342 -401
-232 -562 -318 -653 -351 -65 -23 -67 -23 -685 -26 -437 -2 -642 0 -695 8 -62
10 -490 161 -860 304 l-35 14 -5 326 c-5 318 -5 326 -27 347 -30 30 -80 30
-105 0 -17 -22 -18 -50 -18 -443 l0 -419 -25 -24 c-24 -25 -26 -25 -202 -25
-145 0 -183 3 -201 16 l-22 15 0 819 c0 731 2 820 16 834 13 13 46 16 205 16
176 0 190 -1 209 -20z"/>
</g>
</svg>
